<?xml version="1.0" encoding="UTF-8" standalone="no"?>
<!DOCTYPE svg PUBLIC "-//W3C//DTD SVG 1.1//EN" "http://www.w3.org/Graphics/SVG/1.1/DTD/svg11.dtd">
<svg version="1.1" xmlns="http://www.w3.org/2000/svg" xmlns:xlink="http://www.w3.org/1999/xlink" preserveAspectRatio="xMidYMid meet" viewBox="0 0 897 452" width="897" height="452"><defs><path d="M692.1 373.04C685.46 373.04 680.08 367.67 680.08 361.03C680.08 331.74 680.08 97.43 680.08 68.14C680.08 61.5 685.46 56.13 692.1 56.13C711.19 56.13 863.9 56.13 882.99 56.13C889.62 56.13 895 61.5 895 68.14C895 97.43 895 331.74 895 361.03C895 367.67 889.62 373.04 882.99 373.04C844.81 373.04 711.19 373.04 692.1 373.04Z" id="ezE9FSTCq"></path><path d="M692.1 373.04C685.46 373.04 680.08 367.67 680.08 361.03C680.08 331.74 680.08 97.43 680.08 68.14C680.08 61.5 685.46 56.13 692.1 56.13C696.3 56.13 713.95 56.13 745.05 56.13C828.48 56.13 874.46 56.13 882.99 56.13C889.62 56.13 895 61.5 895 68.14C895 97.43 895 331.74 895 361.03C895 367.67 889.62 373.04 882.99 373.04C844.81 373.04 711.19 373.04 692.1 373.04Z" id="a5AsRATIdC"></path><path d="M879 88.13C879 88.13 879 88.13 879 88.13C879 239.88 879 324.18 879 341.04C879 341.04 879 341.04 879 341.04C769.8 341.04 709.13 341.04 697 341.04C697 341.04 697 341.04 697 341.04C697 189.29 697 104.99 697 88.13C697 88.13 697 88.13 697 88.13C806.2 88.13 866.87 88.13 879 88.13Z" id="g6qX6ALTq"></path><path d="M788.02 348.04C783.59 348.04 780 351.64 780 356.07C780 360.49 783.59 364.09 788.02 364.09C792.45 364.09 796.04 360.49 796.04 356.07C796.04 351.64 792.45 348.04 788.02 348.04Z" id="b3SWdptA4F"></path><path d="M786.99 70.04C785.34 70.04 784 71.38 784 73.03C784 74.69 785.34 76.02 786.99 76.02C788.64 76.02 789.98 74.69 789.98 73.03C789.98 71.38 788.64 70.04 786.99 70.04Z" id="d6yUBENMh1"></path><path d="M98 2.04C84.5 2.04 73 13.12 73 26.83C73 48.58 73 157.33 73 353.07L619 353.07C619 157.33 619 48.58 619 26.83C619 13.12 607.54 2.04 594 2.04C494.8 2.04 147.6 2.04 98 2.04Z" id="dCWTZXjMv"></path><path d="M346.81 17.04C344.49 17.04 342.62 18.83 342.62 21.04C342.62 23.25 344.49 25.04 346.81 25.04C349.12 25.04 351 23.25 351 21.04C351 18.83 349.12 17.04 346.81 17.04Z" id="b8NwGdFWSP"></path><path d="M51.29 384.05C20.64 384.05 0 373.54 0 369.07C0 367.71 0 356.83 0 355.47C0 354.13 1.34 353.04 3 353.04C33.33 353.04 196.71 353.04 493.12 353.04C495.65 353.04 497.54 353.04 498.79 353.04C591.52 353.04 666.46 353.04 689.1 353.04C690.77 353.04 692.1 354.13 692.1 355.47C692.1 356.88 692.1 368.19 692.1 369.6C692.1 373.14 676.11 384.05 640.81 384.05C522.91 384.05 110.24 384.05 51.29 384.05Z" id="k1CHNaK1cG"></path><path d="M0.5 367.54L690.24 367.54" id="c88DRwEHb"></path><path d="M596.07 41.04C596.07 41.04 596.07 41.04 596.07 41.04C596.07 216.25 596.07 313.59 596.07 333.05C596.07 333.05 596.07 333.05 596.07 333.05C295.43 333.05 128.4 333.05 95 333.05C95 333.05 95 333.05 95 333.05C95 157.85 95 60.51 95 41.04C95 41.04 95 41.04 95 41.04C395.64 41.04 562.67 41.04 596.07 41.04Z" id="b2FAXoX6Nx"></path><path d="M421 354.04C421 355.9 421 356.93 421 357.13C421 359.33 416.67 360 413.39 360C399.93 360 292.27 360 278.82 360C275.36 360 271 359.33 271 357.13C271 356.93 271 355.9 271 354.04" id="a7XHrqJjc"></path><path d="M689.94 452C680.15 452 601.85 452 592.06 452C583.19 452 576 444.84 576 436.01C576 411.82 576 218.31 576 194.12C576 185.28 583.19 178.13 592.06 178.13C601.85 178.13 680.15 178.13 689.94 178.13C698.81 178.13 706 185.28 706 194.12C706 210.24 706 290.87 706 436.01L706 436.01C701.21 446.67 695.85 452 689.94 452Z" id="a7wDKvjX0"></path><path d="M695.93 213.99C695.93 213.99 695.93 213.99 695.93 213.99C695.93 333.44 695.93 399.8 695.93 413.08C695.93 413.08 695.93 413.08 695.93 413.08C628.77 413.08 591.46 413.08 584 413.08C584 413.08 584 413.08 584 413.08C584 293.62 584 227.26 584 213.99C584 213.99 584 213.99 584 213.99C651.16 213.99 688.47 213.99 695.93 213.99Z" id="bDHNQVv29"></path><path d="M651.02 204.94C649.01 204.94 632.93 204.94 630.92 204.94C630.38 204.94 629.94 204.42 629.94 203.79C629.94 203.53 629.94 201.47 629.94 201.21C629.94 200.58 630.38 200.06 630.92 200.06C632.02 200.06 637.39 200.06 642.32 200.06C646.36 200.06 650.12 200.06 651.02 200.06C651.56 200.06 652 200.58 652 201.21C652 201.38 652 202.24 652 203.79L652 203.79C651.71 204.55 651.38 204.94 651.02 204.94Z" id="a7dm6Q0qR"></path><path d="M641 187.04C639.34 187.04 638 188.39 638 190.04C638 191.7 639.34 193.04 641 193.04C642.66 193.04 644 191.7 644 190.04C644 188.39 642.66 187.04 641 187.04Z" id="bMz9qHZXn"></path><path d="M650.08 432.04C650.08 437.57 645.58 442.05 640.04 442.05C634.5 442.05 630 437.57 630 432.04C630 426.52 634.5 422.04 640.04 422.04C645.58 422.04 650.08 426.52 650.08 432.04Z" id="e3ObNYM1bY"></path></defs><g><g><g><use xlink:href="#ezE9FSTCq" opacity="1" fill="#fdfdfd" fill-opacity="1"></use><g><use xlink:href="#ezE9FSTCq" opacity="1" fill-opacity="0" stroke="#7e89a3" stroke-width="2" stroke-opacity="1"></use></g></g><g><use xlink:href="#a5AsRATIdC" opacity="1" fill="#fdfdfd" fill-opacity="1"></use><g><use xlink:href="#a5AsRATIdC" opacity="1" fill-opacity="0" stroke="#b500ff" stroke-width="2" stroke-opacity="1"></use></g></g><g><use xlink:href="#g6qX6ALTq" opacity="1" fill="#ffffff" fill-opacity="1"></use><g><use xlink:href="#g6qX6ALTq" opacity="1" fill-opacity="0" stroke="#b500ff" stroke-width="1" stroke-opacity="1"></use></g></g><g><use xlink:href="#b3SWdptA4F" opacity="1" fill="#000000" fill-opacity="0"></use><g><use xlink:href="#b3SWdptA4F" opacity="1" fill-opacity="0" stroke="#b500ff" stroke-width="1" stroke-opacity="1"></use></g></g><g><use xlink:href="#d6yUBENMh1" opacity="1" fill="#000000" fill-opacity="0"></use><g><use xlink:href="#d6yUBENMh1" opacity="1" fill-opacity="0" stroke="#b500ff" stroke-width="1" stroke-opacity="1"></use></g></g><g><use xlink:href="#dCWTZXjMv" opacity="1" fill="#fdfdfd" fill-opacity="1"></use><g><use xlink:href="#dCWTZXjMv" opacity="1" fill-opacity="0" stroke="#b500ff" stroke-width="2" stroke-opacity="1"></use></g></g><g><use xlink:href="#b8NwGdFWSP" opacity="1" fill="#000000" fill-opacity="0"></use><g><use xlink:href="#b8NwGdFWSP" opacity="1" fill-opacity="0" stroke="#b500ff" stroke-width="2" stroke-opacity="1"></use></g></g><g><use xlink:href="#k1CHNaK1cG" opacity="1" fill="#fdfdfd" fill-opacity="1"></use><g><use xlink:href="#k1CHNaK1cG" opacity="1" fill-opacity="0" stroke="#b500ff" stroke-width="2" stroke-opacity="1"></use></g></g><g><use xlink:href="#c88DRwEHb" opacity="1" fill="#000000" fill-opacity="0"></use><g><use xlink:href="#c88DRwEHb" opacity="1" fill-opacity="0" stroke="#b500ff" stroke-width="1" stroke-opacity="1"></use></g></g><g><use xlink:href="#b2FAXoX6Nx" opacity="1" fill="#ffffff" fill-opacity="1"></use><g><use xlink:href="#b2FAXoX6Nx" opacity="1" fill-opacity="0" stroke="#b500ff" stroke-width="1" stroke-opacity="1"></use></g></g><g><use xlink:href="#a7XHrqJjc" opacity="1" fill="#ffffff" fill-opacity="1"></use><g><use xlink:href="#a7XHrqJjc" opacity="1" fill-opacity="0" stroke="#b500ff" stroke-width="1" stroke-opacity="1"></use></g></g><g><use xlink:href="#a7wDKvjX0" opacity="1" fill="#fdfdfd" fill-opacity="1"></use><g><use xlink:href="#a7wDKvjX0" opacity="1" fill-opacity="0" stroke="#b500ff" stroke-width="2" stroke-opacity="1"></use></g></g><g><use xlink:href="#bDHNQVv29" opacity="1" fill="#ffffff" fill-opacity="1"></use><g><use xlink:href="#bDHNQVv29" opacity="1" fill-opacity="0" stroke="#b500ff" stroke-width="1" stroke-opacity="1"></use></g></g><g><use xlink:href="#a7dm6Q0qR" opacity="1" fill="#000000" fill-opacity="0"></use><g><use xlink:href="#a7dm6Q0qR" opacity="1" fill-opacity="0" stroke="#b500ff" stroke-width="1" stroke-opacity="1"></use></g></g><g><use xlink:href="#bMz9qHZXn" opacity="1" fill="#000000" fill-opacity="0"></use><g><use xlink:href="#bMz9qHZXn" opacity="1" fill-opacity="0" stroke="#b500ff" stroke-width="1" stroke-opacity="1"></use></g></g><g><use xlink:href="#e3ObNYM1bY" opacity="1" fill="#000000" fill-opacity="0"></use><g><use xlink:href="#e3ObNYM1bY" opacity="1" fill-opacity="0" stroke="#b500ff" stroke-width="1" stroke-opacity="1"></use></g></g></g></g></svg>