<?xml version="1.0" encoding="UTF-8" standalone="no"?>
<!DOCTYPE svg PUBLIC "-//W3C//DTD SVG 1.1//EN" "http://www.w3.org/Graphics/SVG/1.1/DTD/svg11.dtd">
<svg version="1.1" xmlns="http://www.w3.org/2000/svg" xmlns:xlink="http://www.w3.org/1999/xlink" preserveAspectRatio="xMidYMid meet" viewBox="0 0 640 640" width="640" height="640"><defs><path d="M200.95 461.71L283.45 406.64L242.23 308.48L200.95 461.71Z" id="a11ZG8JPpv"></path><path d="M242.23 308.48L216.55 451.29L200.95 461.71L242.23 308.48Z" id="b8eigFZAOi"></path><path d="M439.05 461.71L356.55 406.64L397.82 308.48L439.05 461.71Z" id="eCFgNYzZf"></path><path d="M242.23 528.22C242.23 528.22 257.83 520.5 256.7 523.32C256.7 523.32 236.99 574.62 236.99 574.62C239.01 572.51 249.09 561.96 267.23 542.97L270.73 591.12L296.74 552.15L313.13 640.06L332.56 557.78L357.11 594.16L358.74 554.29L385.38 594.1L377.89 537L404.98 559.13L367.7 464.25L281.54 464.25C257.95 502.63 244.85 523.95 242.23 528.22Z" id="a5Hd39B00Z"></path><path d="M281.54 464.25L256.65 514.65L283.45 511.38L283.45 552.15L316.45 512.06L321.01 564.65L340.55 514.48L367.08 552.15L362.85 508.17L382.17 517.69L367.75 464.25L281.54 464.25Z" id="f14LnbpdYb"></path><path d="M400.08 247.72C400.13 110.88 320 0 320 0C320 0 239.92 110.88 239.92 247.72C239.92 327.63 252.14 398.7 271.12 443.97C277.64 443.97 310.22 443.97 368.88 443.97C389.68 366.41 400.08 300.99 400.08 247.72Z" id="c2BXWuAP5a"></path><path d="M275.91 239.05C275.91 150.24 292.24 67.91 320.11 0.11C320.1 0.1 320.01 0.01 320 0C320 0 239.92 110.88 239.92 247.72C239.92 327.63 252.14 398.7 271.12 443.97C273.55 443.97 285.67 443.97 307.5 443.97C286.44 356.99 275.91 288.68 275.91 239.05Z" id="cElcb4uJE"></path><path d="M390.05 368.18C390.67 364.57 391.29 360.97 391.91 357.25C377.54 357.25 262.52 357.25 248.14 357.25C248.71 360.97 249.33 364.57 250 368.18C278.01 368.18 376.05 368.18 390.05 368.18Z" id="cIy380k1z"></path><path d="M285.93 357.25C282.15 357.25 251.92 357.25 248.14 357.25C248.71 361.02 249.33 364.63 250 368.18C252.53 368.18 265.16 368.18 287.9 368.18C287 363.33 286.34 359.69 285.93 357.25Z" id="e3FqRbgBo"></path><path d="M385.94 388.34C386.73 384.79 387.52 381.13 388.25 377.41C374.6 377.41 265.4 377.41 251.75 377.41C252.48 381.13 253.27 384.79 254.06 388.34C280.43 388.34 372.75 388.34 385.94 388.34Z" id="e1e2X5YzZ"></path><path d="M289.76 377.41C285.96 377.41 255.55 377.41 251.75 377.41C252.42 381.02 253.16 384.62 254.06 388.34C256.6 388.34 269.28 388.34 292.12 388.34C291.07 383.49 290.29 379.85 289.76 377.41Z" id="cnXsmV71W"></path><path d="M252.2 152.16C265.76 152.16 374.24 152.16 387.8 152.16C365.39 62.79 320 0 320 0C306.44 30.43 274.67 62.79 252.2 152.16Z" id="aCa2OoYN8"></path><path d="M377.95 464.25L262.05 464.25L271.12 443.97L368.88 443.97L377.95 464.25Z" id="avDUhx9JN"></path><path d="M307.5 443.97L271.12 443.97L262.05 464.25L307.55 464.25L307.5 443.97Z" id="a1ns8WEEFs"></path><path d="M320 93.54C306.04 93.54 294.72 104.86 294.72 118.82C294.72 132.79 306.04 144.11 320 144.11C333.96 144.11 345.28 132.79 345.28 118.82C345.28 104.86 333.96 93.54 320 93.54Z" id="c1CfxdcR2H"></path><path d="M320 99.73C309.46 99.73 300.91 108.28 300.91 118.82C300.91 129.36 309.46 137.91 320 137.91C330.54 137.91 339.09 129.36 339.09 118.82C339.09 108.28 330.54 99.73 320 99.73Z" id="irpDO4k4F"></path><path d="M305.41 115.22C305.41 110.26 307.33 105.7 310.43 102.32C304.74 105.64 300.91 111.78 300.91 118.82C300.91 129.35 309.47 137.91 320 137.91C325.58 137.91 330.59 135.49 334.08 131.72C331.32 133.35 328 134.31 324.51 134.31C313.97 134.31 305.41 125.75 305.41 115.22Z" id="a1tCorgFaA"></path><path d="M281.54 464.25L270.73 507.83L296.74 478.32L296.74 517.69L326.87 476.18L349.11 509.97L358.52 468.19L377.95 500.12L367.75 464.25L281.54 464.25Z" id="iYjROF7CD"></path><path d="M320 479.85C320 479.85 313.19 441.5 313.19 394.19C313.19 346.89 320.06 308.54 320.06 308.54C320.06 308.54 326.87 346.83 326.87 394.19C326.87 441.5 321.37 462.71 320 479.85Z" id="h5cANQn8i"></path><path d="M418.72 448.14L397.82 308.48L439.05 461.71L418.72 448.14Z" id="gLMCxL7Qf"></path><path d="M320.11 164.77L304.18 210.56L320.11 222.78L335.99 210.56L320.11 164.77Z" id="cwa3c9QeF"></path></defs><g><g><g><use xlink:href="#a11ZG8JPpv" opacity="1" fill="#c34d2b" fill-opacity="1"></use><g><use xlink:href="#a11ZG8JPpv" opacity="1" fill-opacity="0" stroke="#000000" stroke-width="1" stroke-opacity="0"></use></g></g><g><use xlink:href="#b8eigFZAOi" opacity="1" fill="#a32808" fill-opacity="1"></use><g><use xlink:href="#b8eigFZAOi" opacity="1" fill-opacity="0" stroke="#000000" stroke-width="1" stroke-opacity="0"></use></g></g><g><use xlink:href="#eCFgNYzZf" opacity="1" fill="#c34d2b" fill-opacity="1"></use><g><use xlink:href="#eCFgNYzZf" opacity="1" fill-opacity="0" stroke="#000000" stroke-width="1" stroke-opacity="0"></use></g></g><g><use xlink:href="#a5Hd39B00Z" opacity="1" fill="#c02e2b" fill-opacity="1"></use><g><use xlink:href="#a5Hd39B00Z" opacity="1" fill-opacity="0" stroke="#000000" stroke-width="1" stroke-opacity="0"></use></g></g><g><use xlink:href="#f14LnbpdYb" opacity="1" fill="#f8e44a" fill-opacity="1"></use><g><use xlink:href="#f14LnbpdYb" opacity="1" fill-opacity="0" stroke="#000000" stroke-width="1" stroke-opacity="0"></use></g></g><g><use xlink:href="#c2BXWuAP5a" opacity="1" fill="#f9f9f9" fill-opacity="1"></use><g><use xlink:href="#c2BXWuAP5a" opacity="1" fill-opacity="0" stroke="#000000" stroke-width="1" stroke-opacity="0"></use></g></g><g><use xlink:href="#cElcb4uJE" opacity="1" fill="#e3e3e3" fill-opacity="1"></use><g><use xlink:href="#cElcb4uJE" opacity="1" fill-opacity="0" stroke="#000000" stroke-width="1" stroke-opacity="0"></use></g></g><g><use xlink:href="#cIy380k1z" opacity="1" fill="#f8e44a" fill-opacity="1"></use><g><use xlink:href="#cIy380k1z" opacity="1" fill-opacity="0" stroke="#000000" stroke-width="1" stroke-opacity="0"></use></g></g><g><use xlink:href="#e3FqRbgBo" opacity="1" fill="#c29539" fill-opacity="1"></use><g><use xlink:href="#e3FqRbgBo" opacity="1" fill-opacity="0" stroke="#000000" stroke-width="1" stroke-opacity="0"></use></g></g><g><use xlink:href="#e1e2X5YzZ" opacity="1" fill="#f8e44a" fill-opacity="1"></use><g><use xlink:href="#e1e2X5YzZ" opacity="1" fill-opacity="0" stroke="#000000" stroke-width="1" stroke-opacity="0"></use></g></g><g><use xlink:href="#cnXsmV71W" opacity="1" fill="#c29539" fill-opacity="1"></use><g><use xlink:href="#cnXsmV71W" opacity="1" fill-opacity="0" stroke="#000000" stroke-width="1" stroke-opacity="0"></use></g></g><g><use xlink:href="#aCa2OoYN8" opacity="1" fill="#c34d2b" fill-opacity="1"></use><g><use xlink:href="#aCa2OoYN8" opacity="1" fill-opacity="0" stroke="#000000" stroke-width="1" stroke-opacity="0"></use></g></g><g><use xlink:href="#avDUhx9JN" opacity="1" fill="#6d5452" fill-opacity="1"></use><g><use xlink:href="#avDUhx9JN" opacity="1" fill-opacity="0" stroke="#000000" stroke-width="1" stroke-opacity="0"></use></g></g><g><use xlink:href="#a1ns8WEEFs" opacity="1" fill="#5a4443" fill-opacity="1"></use><g><use xlink:href="#a1ns8WEEFs" opacity="1" fill-opacity="0" stroke="#000000" stroke-width="1" stroke-opacity="0"></use></g></g><g><use xlink:href="#c1CfxdcR2H" opacity="1" fill="#c34d2b" fill-opacity="1"></use><g><use xlink:href="#c1CfxdcR2H" opacity="1" fill-opacity="0" stroke="#000000" stroke-width="1" stroke-opacity="0"></use></g></g><g><use xlink:href="#irpDO4k4F" opacity="1" fill="#99bdeb" fill-opacity="1"></use><g><use xlink:href="#irpDO4k4F" opacity="1" fill-opacity="0" stroke="#000000" stroke-width="1" stroke-opacity="0"></use></g></g><g><use xlink:href="#a1tCorgFaA" opacity="1" fill="#7da2dd" fill-opacity="1"></use><g><use xlink:href="#a1tCorgFaA" opacity="1" fill-opacity="0" stroke="#000000" stroke-width="1" stroke-opacity="0"></use></g></g><g><use xlink:href="#iYjROF7CD" opacity="1" fill="#ffffff" fill-opacity="1"></use><g><use xlink:href="#iYjROF7CD" opacity="1" fill-opacity="0" stroke="#000000" stroke-width="1" stroke-opacity="0"></use></g></g><g><use xlink:href="#h5cANQn8i" opacity="1" fill="#c34d2b" fill-opacity="1"></use><g><use xlink:href="#h5cANQn8i" opacity="1" fill-opacity="0" stroke="#000000" stroke-width="1" stroke-opacity="0"></use></g></g><g><use xlink:href="#gLMCxL7Qf" opacity="1" fill="#a0290e" fill-opacity="1"></use><g><use xlink:href="#gLMCxL7Qf" opacity="1" fill-opacity="0" stroke="#000000" stroke-width="1" stroke-opacity="0"></use></g></g><g><use xlink:href="#cwa3c9QeF" opacity="1" fill="#ffffff" fill-opacity="1"></use><g><use xlink:href="#cwa3c9QeF" opacity="1" fill-opacity="0" stroke="#000000" stroke-width="1" stroke-opacity="0"></use></g></g></g></g></svg>