<?xml version="1.0" encoding="utf-8"?>
<!-- Generator: Adobe Illustrator 23.0.0, SVG Export Plug-In . SVG Version: 6.00 Build 0)  -->
<svg version="1.1" id="Capa_1" xmlns="http://www.w3.org/2000/svg" xmlns:xlink="http://www.w3.org/1999/xlink" x="0px" y="0px"
	 viewBox="0 0 512 641" enable-background="new 0 0 512 641" xml:space="preserve">
<path fill="#FFFFFF" d="M434.8,82c2.8-21.9,12.4-44.3,25.2-55.8c3.1-2.8,3.3-7.5,0.6-10.6s-7.5-3.3-10.6-0.6
	c-15.2,13.7-26.3,38.1-29.9,62.7c-9.4-2.1-19.3-3.3-29.4-3.3c-11,0-21.7,1.4-31.8,3.9c4.1-18.5,12.6-36.3,23.5-46
	c3.1-2.8,3.3-7.5,0.6-10.6s-7.5-3.3-10.6-0.6c-15.2,13.6-26.2,37.9-29.8,62.4c-20.3,8-37.7,21-50.5,37.2c-12.7-4.5-26-6.7-39.8-6.7
	c-8.9,0-17.6,1-26,2.8c-23.3-24.4-56.7-38.2-92.3-38.2c-26.5,0-53.9,7.8-77.1,21.9c-3.5,2.2-4.7,6.8-2.5,10.3
	c2.2,3.5,6.8,4.7,10.3,2.5c20.9-12.7,45.5-19.8,69.3-19.8c28.7,0,55.8,10.1,75.9,28.2c-39.7,15.1-67.8,50.7-68.3,92.2l-4-1.7
	c-6.1-2.6-13-2.2-18.8,0.8c-5.9,3.1-10,8.6-11.4,15l-10.2,47.9c-21.8-5.6-41.6-16-56.1-29.6c-17-15.9-26-35.3-26-55.9
	c0-19.8,8.2-39.1,23.6-55.9c2.8-3,2.6-7.8-0.4-10.6c-3-2.8-7.8-2.6-10.6,0.4C9.5,143.9,0,166.8,0,190.4c0,24.9,10.6,48,30.8,66.8
	c16.5,15.5,38.8,27.2,63.3,33.4l-14.6,68.7c-1.2,5.8-0.1,11.7,3.1,16.7s8.2,8.4,14,9.6c1.5,0.3,3.1,0.5,4.6,0.5h0
	c10.4,0,19.5-7.4,21.7-17.6l15.5-72.9c14.6-0.4,28.7-2.8,41.9-7.2c5.2,3.7,10.8,7,16.8,9.9l-10.8,88.7c-1.5,12.1,7.2,23.2,19.4,24.7
	c0.9,0.1,1.8,0.2,2.7,0.2c11.2,0,20.7-8.4,22-19.5l10-82.6c4,0.3,8,0.5,12,0.5c22.2,0,43.1-5.2,60.7-14.7l9.1,75.2
	c1.4,11.1,10.8,19.5,22,19.5c0.9,0,1.8-0.1,2.7-0.2c9.1-1.1,16.7-7.8,18.9-16.8c1-4-1.5-8.1-5.5-9.1c-4-1-8.1,1.5-9.1,5.5
	c-0.7,2.9-3.2,5.1-6.1,5.4c-4,0.5-7.5-2.4-8-6.3l-10-82.4c3.2-2.4,6.2-5,9-7.8c1.5,0.6,3.1,1.2,4.7,1.8l7,57.5
	c0.5,3.8,3.7,6.6,7.4,6.6c0.3,0,0.6,0,0.9-0.1c4.1-0.5,7-4.2,6.5-8.4l-6.2-51c10.8,2.5,22.2,3.9,34.2,3.9
	c69.1,0,121.3-44.7,121.3-104.1C512,138.2,479.9,98.1,434.8,82L434.8,82z M141.6,280.4l3.6-17l15.5,6.5c1.9,2.4,3.9,4.6,6,6.8
	C158.6,278.7,150.2,279.9,141.6,280.4z M314.8,276.9C314.8,276.9,314.8,276.9,314.8,276.9c-17,11.8-38.9,18.3-62.4,18.3
	c-3.4,0-6.8-0.2-10.2-0.4l1.1-9.1l22.9,5.4c4,1,8.1-1.5,9-5.6c1-4-1.5-8.1-5.6-9l-31.1-7.3c-2.1-0.5-4.3-0.1-6,1.1
	c-1.8,1.2-2.9,3.1-3.2,5.2l-14,114.9c-0.5,3.9-4,6.7-8,6.3c-3.9-0.5-6.7-4.1-6.3-8l15.9-131.2c0.2-2,1.3-3.9,3-5s3.8-1.6,5.8-1.1
	l47,11.1c4,1,8.1-1.5,9-5.6c1-4-1.5-8.1-5.6-9l-47-11.1c-6.1-1.4-12.6-0.2-17.8,3.4c-5.2,3.6-8.6,9.3-9.3,15.5l-3.2,26.7
	c-6.5-3.5-12.4-7.7-17.7-12.4c1.4-3.8-0.4-8-4.1-9.5l-34.6-14.4c-2.1-0.9-4.4-0.8-6.4,0.3c-2,1-3.4,2.9-3.9,5.1l-7.5,35
	c0,0,0,0,0,0.1l-16.8,78.8c-0.7,3.3-3.7,5.7-7,5.7h0c-0.5,0-1-0.1-1.5-0.2c-3.9-0.8-6.4-4.6-5.5-8.5L122,231.1
	c0.4-2.1,1.8-3.9,3.7-4.9c1.9-1,4.1-1.1,6.1-0.3l50.9,21.2c3.8,1.6,8.2-0.2,9.8-4c1.6-3.8-0.2-8.2-4-9.8l-31.7-13.2
	c-0.1-1.7-0.2-3.4-0.2-5.1c0-47.5,43-86.1,95.8-86.1c10.7,0,21.1,1.6,31,4.6c-8.9,15.4-13.9,32.9-13.9,51.4
	c0,37,20.2,68.3,52.2,86.6C319.5,273.5,317.2,275.2,314.8,276.9L314.8,276.9z M466.4,248.9c-19.7,16.3-46.5,25.2-75.7,25.2
	c-14.4,0-28.2-2.2-40.8-6.3c-0.1,0-0.1,0-0.2-0.1c-13-4.3-24.7-10.6-34.7-18.8c-19.7-16.3-30.6-39-30.6-63.9
	c0-36.7,23.1-68.6,56.8-84.6c0,5.8,0.4,11.5,1.4,16.9c0.7,3.6,3.8,6.2,7.4,6.2c0.4,0,0.9,0,1.3-0.1c4.1-0.7,6.8-4.6,6-8.7
	c-1.1-6.3-1.4-13.1-0.9-20.1c10.7-3.3,22.2-5.1,34.2-5.1c9.7,0,19.2,1.2,28.1,3.4c-0.1,6.3,0.3,12.5,1.4,18.4
	c0.7,3.6,3.8,6.2,7.4,6.2c0.4,0,0.9,0,1.3-0.1c4.1-0.7,6.8-4.6,6-8.7c-0.6-3.5-1-7.1-1.1-10.9c37.1,14.9,63.1,48.4,63.1,87.3
	C497,209.9,486.1,232.5,466.4,248.9z M450.6,167c-4.1,0-7.5,3.4-7.5,7.5v8.3c0,4.1,3.4,7.5,7.5,7.5s7.5-3.4,7.5-7.5v-8.3
	C458.1,170.4,454.7,167,450.6,167z M418.5,177.6c-3.1-2.7-7.9-2.4-10.6,0.7c-1.9,2.2-4.7,3.5-7.6,3.5c-2.9,0-5.7-1.3-7.6-3.5
	c-2.7-3.1-7.5-3.4-10.6-0.7c-3.1,2.7-3.4,7.5-0.7,10.6c4.8,5.5,11.7,8.6,18.9,8.6s14.1-3.1,18.9-8.6
	C422,185,421.6,180.3,418.5,177.6L418.5,177.6z M350.1,167c-4.1,0-7.5,3.4-7.5,7.5v8.3c0,4.1,3.4,7.5,7.5,7.5s7.5-3.4,7.5-7.5v-8.3
	C357.6,170.4,354.3,167,350.1,167z"/>
<g>
	<g>
		<path fill="#FFFFFF" d="M493.8,479.1c0.4-1.7,0-3.5-1.2-5.2l0,0c-2.3-3.3-6.7-4.9-10-3.5c0,0,0,0,0,0
			c-0.1,0.1-64.6,28.4-169.3-27.8c-13.6-7.4-28-13-42.6-16.6c-26.1-6.6-51.9-5.4-73.5,3.4c-20.2,8.3-35.7,22.7-44.5,41.3
			c-6.4,13.5-8.9,28.9-7.4,45c0,0,0,0,0,0c-23.9-1.5-85-40.7-126.4-11c-1.1,0.8-1.9,2-2.1,3.4c-0.2,2.2,0.9,4.7,3.2,6.5
			c3.3,2.6,7.8,2.6,9.9,0.1c26.1-29.9,95.1,12.7,117.5,14.1c0,0,0,0,0,0c18.9,38.8,23.9,39.4,54.3,61.7
			c20.5,14.9,43.7,22.5,67.5,28.7c25.8,6.9,51.7,8.1,75.5,3.7C406.1,611.7,469.3,588.6,493.8,479.1z M159.7,518.1L159.7,518.1
			c-0.5-4.6-0.5-9.1-0.3-13.6c0.6-9.4,2.9-18.3,6.8-26.5c7.6-16.4,21.2-29.2,39-36.6c19-7.8,41.8-8.8,64.7-2.9
			c13.1,3.3,26,8.4,38.3,15.1c69,37.2,122.5,39.4,153.2,35.7c0,0,0,0,0,0c-31.4,22.6-69.6,37.3-111.9,43c0,0,0,0,0,0l12.1-24.6
			c1.6-2.9,0-7-3.6-9.1s-7.9-1.5-9.5,1.4c-0.1,0.1-0.2,0.3-0.2,0.4l-16.8,34c0,0,0,0,0,0C286.5,538.7,229.8,535.6,159.7,518.1z
			 M339.2,610.1L339.2,610.1c-21.7,4.1-45.3,3-68.8-3.2c-21.6-5.7-42.7-12.3-61.3-25.9c-26.1-18.6-42.2-30.6-47-49.6c0,0,0,0,0,0
			c25.8,6.4,51.6,11.2,77.4,14.3c0,0,0,0,0,0l37.4,32.5c3.2,2.7,7.7,3,10,0.6c2.2-2.3,1.7-6.2-1.3-8.9l-25.7-22.1c0,0,0,0,0,0
			c26.9,2.2,53.3,2.1,79-0.5c0.4,0,0.9-0.1,1.3-0.1c68.2-7.4,110.6-31.1,133-48.1c0,0,0,0,0,0C447.3,586.2,391.8,600.4,339.2,610.1z
			"/>
	</g>
</g>
</svg>
