<svg xmlns="http://www.w3.org/2000/svg" viewBox="0 0 512.001 512.001"><path fill="#fff" d="M470.243 140.039c-17.976-5.255-36.879-3.219-53.219 5.729l-41.978 22.991c-5.818-4.836-10.43-7.605-13.888-9.281l24.952-17.341-9.874-14.205c-25.521-36.723-63.859-61.271-107.952-69.124-43.851-7.809-88.014 1.903-124.352 27.346l-84.551 58.76H1.691v34.601h54.971a166.518 166.518 0 0031.574 30.595c-20.244 3.066-38.963 10.459-54.121 21.576C12.116 247.818 0 269.778 0 293.519s12.116 45.7 34.114 61.832c18.521 13.582 42.36 21.597 67.8 22.953v7.552c0 19.5-15.866 35.366-35.367 35.366v34.601c38.58 0 69.968-31.387 69.968-69.967v-9.876c18.138-3.498 34.865-10.522 48.648-20.629 5.78-4.239 10.871-8.883 15.245-13.853v44.359c0 19.5-15.866 35.366-35.366 35.366v34.601c38.58 0 69.967-31.387 69.967-69.967v-45.112c3.274.551 6.631.853 10.06.853a60.013 60.013 0 0025.789-5.797v50.055c0 38.58 31.388 69.967 69.968 69.967v-34.601c-19.501 0-35.367-15.866-35.367-35.366v-92.19a76.91 76.91 0 003.56 1.304c2.742.924 8.132 2.738 18.429 2.738 11.452 0 28.971-2.246 55.654-10.463 23.297-7.175 42.657-15.479 43.469-15.83l17.709-7.625-9.491-16.782c-.436-.77-10.834-19.092-25.049-38.895a332.09 332.09 0 00-10.102-13.376l34.007-18.623c8.235-4.509 17.784-5.528 26.891-2.865 9.107 2.662 16.605 8.663 21.116 16.897l30.349-16.62c-8.95-16.339-23.779-28.232-41.758-33.487zM109.639 343.932c-40.675 0-75.038-23.087-75.038-50.414s34.364-50.414 75.038-50.414c40.675 0 75.038 23.087 75.038 50.414.001 27.327-34.364 50.414-75.038 50.414zm135.429-36.934c-14.221 0-25.791-11.569-25.791-25.791s11.569-25.791 25.791-25.791c14.22 0 25.789 11.569 25.789 25.791s-11.568 25.791-25.789 25.791zm18.379-121.75c-28.689 19.938-63.739 27.425-98.695 21.081-22.157-4.022-42.467-13.271-59.52-26.815h34.237c35.876 0 59.758-11.941 103.121-33.62l-15.484-30.945c-41.15 20.575-59.93 29.963-87.638 29.963h-19.456l43.753-30.406c28.755-20.137 63.719-27.82 98.454-21.635 29.216 5.204 55.243 19.645 74.817 41.233l-73.589 51.144zm56.612 76.931c-9.644-3.247-17.449-10.056-21.974-19.173-4.525-9.116-5.228-19.449-1.982-29.096s10.056-17.449 19.172-21.974c5.345-2.653 11.107-3.992 16.904-3.992 4.091 0 8.199.668 12.191 2.01 11.558 3.891 32.8 30.08 50.045 57.084-35.47 13.195-65.032 18.278-74.356 15.141z"/></svg>