<svg height="512" viewBox="0 0 512 512" width="512" xmlns="http://www.w3.org/2000/svg" data-name="Layer 1"><path fill="#fff" d="M284.557 270.834a61.9 61.9 0 008.019-16.269l78.4 48.3 46.324 96.517a6 6 0 003.719 3.161l45.708 13.422a6 6 0 003.381-11.514l-43.146-12.669-45.93-95.7a6.009 6.009 0 00-2.262-2.513l-80.676-49.7a5.965 5.965 0 00-2.764-.877 79.429 79.429 0 00.944-12.2 80.237 80.237 0 00-.452-8.508l69.417-8.678 42.261 46.112a6 6 0 005.051 1.912l25.539-2.689a6 6 0 10-1.256-11.933l-22.532 2.372-42.315-46.163a6.017 6.017 0 00-5.167-1.9l-73.22 9.153q-.79-2.9-1.8-5.678a6.031 6.031 0 002.519.562 5.968 5.968 0 003.368-1.039l45.693-31.063a5.991 5.991 0 002.256-2.885l28.84-78.17 53.724-1.249a6 6 0 10-.28-12l-57.8 1.344a6 6 0 00-5.489 3.921l-29.586 80.192-44.1 29.983a5.966 5.966 0 00-2.327 3.108 57.871 57.871 0 00-4.054-6.743 43.734 43.734 0 00-14.98-13.721c23.538-8.078 40.812-33.939 40.812-64.53a77.584 77.584 0 00-5.171-28.04l53.039-27.807a6 6 0 002.814-7.469l-13.449-34.945a6 6 0 00-11.2 4.309l11.524 29.962-47.993 25.16A61.371 61.371 0 00280.583 53.3l7.824-18.431a6 6 0 10-11.046-4.689l-7.583 17.862a47.548 47.548 0 00-31.288-.1l-7.923-17.849a6 6 0 10-10.967 4.868l8.064 18.167a60.865 60.865 0 00-18.831 19.162l-45.355-23.778L175 18.55a6 6 0 00-11.2-4.309L150.359 49.19a6 6 0 002.814 7.469l50.167 26.3a77.374 77.374 0 00-5.766 29.546c0 30.591 17.273 56.452 40.812 64.53a43.725 43.725 0 00-14.98 13.721 57.029 57.029 0 00-3.037 4.858 5.994 5.994 0 00-1.322-1.223l-44.1-29.983-29.589-80.191a6 6 0 00-5.489-3.921l-57.8-1.344h-.142a6 6 0 00-.137 12l53.722 1.248 28.84 78.17a6 6 0 002.255 2.885l45.693 31.06a5.965 5.965 0 003.368 1.039c.1 0 .2-.012.3-.018a75.975 75.975 0 00-4.283 25.459 79.209 79.209 0 001.184 13.712l-79.639 49.064a6.009 6.009 0 00-2.262 2.513l-45.93 95.7-43.146 12.667a6 6 0 103.381 11.514l45.708-13.422a6 6 0 003.719-3.161l46.324-96.518 75.076-46.251a61.071 61.071 0 007.307 14.221 49.7 49.7 0 005.927 7.006c-21.224 3.43-40.152 11.292-54.753 23-21.929 17.582-33.5 42.669-33.465 72.548a59.961 59.961 0 001.679 13.712 6.157 6.157 0 00.217.928c14.224 56.677 103.934 110.3 108.066 112.743a6.005 6.005 0 006.118-.007c4.48-2.663 109.727-65.921 109.652-127.65-.036-29.879-11.669-54.937-33.641-72.467-14.573-11.626-33.427-19.426-54.557-22.825a49.842 49.842 0 005.907-6.988zm-74.983-158.328a65.318 65.318 0 015.852-27.317 5.957 5.957 0 002.2-4.3c8.04-14.22 21.333-23.54 36.353-23.54a36.507 36.507 0 0114.408 3 5.969 5.969 0 003.871 1.914c15.391 8.673 26.129 27.927 26.129 50.251 0 30.416-19.921 55.161-44.408 55.161s-44.405-24.753-44.405-55.169zm94.131 339.351a416.041 416.041 0 01-49.584 36.706 416.029 416.029 0 01-49.672-36.585c-22.653-19.653-38.091-38.424-45.748-55.413a201.759 201.759 0 0027.782 4.557c18.254 1.956 41.608 3.066 65.76 3.126h2.093c34.059 0 72.91-2.054 94.795-7.5-7.679 16.899-23.005 35.561-45.426 55.109zm22.018-141.83c19.021 15.176 29.092 37 29.124 63.1a47.315 47.315 0 01-1.028 9.611c-13.238 5.761-53.938 9.611-101.547 9.51-52.361-.129-87.855-4.9-98.228-9.852a46.949 46.949 0 01-.929-9.023c-.032-26.105 9.987-47.95 28.971-63.172 16.695-13.385 39.975-21.175 66.032-22.205a31.495 31.495 0 0011.752 0c25.965 1.004 49.176 8.726 65.853 22.031zM254.061 276h-.2c-1.577 0-3.14-.022-4.7.025-14.421-3.5-25.474-22.448-25.474-45.2 0-25.228 13.589-45.767 30.293-45.767s30.293 20.515 30.293 45.743c0 22.741-11.044 41.713-25.456 45.222-1.578-.045-3.16-.023-4.756-.023z"/><path d="M86 261.63a6 6 0 005.051-1.912l42.265-46.109 72.2 9.026a6 6 0 001.488-11.908l-75.275-9.41a6.022 6.022 0 00-5.167 1.9l-42.31 46.163-22.533-2.372a6 6 0 00-1.256 11.933z"/></svg>