<svg xmlns="http://www.w3.org/2000/svg" viewBox="0 0 512 641"><path fill="#FFF" d="M434.8 82c2.8-21.9 12.4-44.3 25.2-55.8 3.1-2.8 3.3-7.5.6-10.6s-7.5-3.3-10.6-.6c-15.2 13.7-26.3 38.1-29.9 62.7-9.4-2.1-19.3-3.3-29.4-3.3-11 0-21.7 1.4-31.8 3.9 4.1-18.5 12.6-36.3 23.5-46 3.1-2.8 3.3-7.5.6-10.6s-7.5-3.3-10.6-.6c-15.2 13.6-26.2 37.9-29.8 62.4-20.3 8-37.7 21-50.5 37.2-12.7-4.5-26-6.7-39.8-6.7-8.9 0-17.6 1-26 2.8C203 92.4 169.6 78.6 134 78.6c-26.5 0-53.9 7.8-77.1 21.9-3.5 2.2-4.7 6.8-2.5 10.3 2.2 3.5 6.8 4.7 10.3 2.5 20.9-12.7 45.5-19.8 69.3-19.8 28.7 0 55.8 10.1 75.9 28.2-39.7 15.1-67.8 50.7-68.3 92.2l-4-1.7c-6.1-2.6-13-2.2-18.8.8-5.9 3.1-10 8.6-11.4 15l-10.2 47.9c-21.8-5.6-41.6-16-56.1-29.6-17-15.9-26-35.3-26-55.9 0-19.8 8.2-39.1 23.6-55.9 2.8-3 2.6-7.8-.4-10.6s-7.8-2.6-10.6.4C9.5 143.9 0 166.8 0 190.4c0 24.9 10.6 48 30.8 66.8 16.5 15.5 38.8 27.2 63.3 33.4l-14.6 68.7c-1.2 5.8-.1 11.7 3.1 16.7s8.2 8.4 14 9.6c1.5.3 3.1.5 4.6.5 10.4 0 19.5-7.4 21.7-17.6l15.5-72.9c14.6-.4 28.7-2.8 41.9-7.2 5.2 3.7 10.8 7 16.8 9.9L186.3 387c-1.5 12.1 7.2 23.2 19.4 24.7.9.1 1.8.2 2.7.2 11.2 0 20.7-8.4 22-19.5l10-82.6c4 .3 8 .5 12 .5 22.2 0 43.1-5.2 60.7-14.7l9.1 75.2c1.4 11.1 10.8 19.5 22 19.5.9 0 1.8-.1 2.7-.2 9.1-1.1 16.7-7.8 18.9-16.8 1-4-1.5-8.1-5.5-9.1s-8.1 1.5-9.1 5.5c-.7 2.9-3.2 5.1-6.1 5.4-4 .5-7.5-2.4-8-6.3l-10-82.4c3.2-2.4 6.2-5 9-7.8 1.5.6 3.1 1.2 4.7 1.8l7 57.5c.5 3.8 3.7 6.6 7.4 6.6.3 0 .6 0 .9-.1 4.1-.5 7-4.2 6.5-8.4l-6.2-51c10.8 2.5 22.2 3.9 34.2 3.9 69.1 0 121.3-44.7 121.3-104.1.1-46.6-32-86.7-77.1-102.8zM141.6 280.4l3.6-17 15.5 6.5c1.9 2.4 3.9 4.6 6 6.8-8.1 2-16.5 3.2-25.1 3.7zm173.2-3.5c-17 11.8-38.9 18.3-62.4 18.3-3.4 0-6.8-.2-10.2-.4l1.1-9.1 22.9 5.4c4 1 8.1-1.5 9-5.6 1-4-1.5-8.1-5.6-9l-31.1-7.3c-2.1-.5-4.3-.1-6 1.1-1.8 1.2-2.9 3.1-3.2 5.2l-14 114.9c-.5 3.9-4 6.7-8 6.3-3.9-.5-6.7-4.1-6.3-8l15.9-131.2c.2-2 1.3-3.9 3-5s3.8-1.6 5.8-1.1l47 11.1c4 1 8.1-1.5 9-5.6 1-4-1.5-8.1-5.6-9l-47-11.1c-6.1-1.4-12.6-.2-17.8 3.4-5.2 3.6-8.6 9.3-9.3 15.5l-3.2 26.7c-6.5-3.5-12.4-7.7-17.7-12.4 1.4-3.8-.4-8-4.1-9.5l-34.6-14.4c-2.1-.9-4.4-.8-6.4.3-2 1-3.4 2.9-3.9 5.1l-7.5 35v.1l-16.8 78.8c-.7 3.3-3.7 5.7-7 5.7-.5 0-1-.1-1.5-.2-3.9-.8-6.4-4.6-5.5-8.5L122 231.1c.4-2.1 1.8-3.9 3.7-4.9 1.9-1 4.1-1.1 6.1-.3l50.9 21.2c3.8 1.6 8.2-.2 9.8-4 1.6-3.8-.2-8.2-4-9.8l-31.7-13.2c-.1-1.7-.2-3.4-.2-5.1 0-47.5 43-86.1 95.8-86.1 10.7 0 21.1 1.6 31 4.6-8.9 15.4-13.9 32.9-13.9 51.4 0 37 20.2 68.3 52.2 86.6-2.2 2-4.5 3.7-6.9 5.4zm151.6-28c-19.7 16.3-46.5 25.2-75.7 25.2-14.4 0-28.2-2.2-40.8-6.3-.1 0-.1 0-.2-.1-13-4.3-24.7-10.6-34.7-18.8-19.7-16.3-30.6-39-30.6-63.9 0-36.7 23.1-68.6 56.8-84.6 0 5.8.4 11.5 1.4 16.9.7 3.6 3.8 6.2 7.4 6.2.4 0 .9 0 1.3-.1 4.1-.7 6.8-4.6 6-8.7-1.1-6.3-1.4-13.1-.9-20.1 10.7-3.3 22.2-5.1 34.2-5.1 9.7 0 19.2 1.2 28.1 3.4-.1 6.3.3 12.5 1.4 18.4.7 3.6 3.8 6.2 7.4 6.2.4 0 .9 0 1.3-.1 4.1-.7 6.8-4.6 6-8.7-.6-3.5-1-7.1-1.1-10.9 37.1 14.9 63.1 48.4 63.1 87.3.2 24.8-10.7 47.4-30.4 63.8zM450.6 167c-4.1 0-7.5 3.4-7.5 7.5v8.3c0 4.1 3.4 7.5 7.5 7.5s7.5-3.4 7.5-7.5v-8.3c0-4.1-3.4-7.5-7.5-7.5zm-32.1 10.6c-3.1-2.7-7.9-2.4-10.6.7-1.9 2.2-4.7 3.5-7.6 3.5-2.9 0-5.7-1.3-7.6-3.5-2.7-3.1-7.5-3.4-10.6-.7-3.1 2.7-3.4 7.5-.7 10.6 4.8 5.5 11.7 8.6 18.9 8.6s14.1-3.1 18.9-8.6c2.8-3.2 2.4-7.9-.7-10.6zM350.1 167c-4.1 0-7.5 3.4-7.5 7.5v8.3c0 4.1 3.4 7.5 7.5 7.5s7.5-3.4 7.5-7.5v-8.3c0-4.1-3.3-7.5-7.5-7.5zm143.7 312.1c.4-1.7 0-3.5-1.2-5.2-2.3-3.3-6.7-4.9-10-3.5-.1.1-64.6 28.4-169.3-27.8-13.6-7.4-28-13-42.6-16.6-26.1-6.6-51.9-5.4-73.5 3.4-20.2 8.3-35.7 22.7-44.5 41.3-6.4 13.5-8.9 28.9-7.4 45-23.9-1.5-85-40.7-126.4-11-1.1.8-1.9 2-2.1 3.4-.2 2.2.9 4.7 3.2 6.5 3.3 2.6 7.8 2.6 9.9.1 26.1-29.9 95.1 12.7 117.5 14.1 18.9 38.8 23.9 39.4 54.3 61.7 20.5 14.9 43.7 22.5 67.5 28.7 25.8 6.9 51.7 8.1 75.5 3.7 61.4-11.2 124.6-34.3 149.1-143.8zm-334.1 39c-.5-4.6-.5-9.1-.3-13.6.6-9.4 2.9-18.3 6.8-26.5 7.6-16.4 21.2-29.2 39-36.6 19-7.8 41.8-8.8 64.7-2.9 13.1 3.3 26 8.4 38.3 15.1 69 37.2 122.5 39.4 153.2 35.7-31.4 22.6-69.6 37.3-111.9 43l12.1-24.6c1.6-2.9 0-7-3.6-9.1s-7.9-1.5-9.5 1.4c-.1.1-.2.3-.2.4l-16.8 34c-45 4.3-101.7 1.2-171.8-16.3zm179.5 92c-21.7 4.1-45.3 3-68.8-3.2-21.6-5.7-42.7-12.3-61.3-25.9-26.1-18.6-42.2-30.6-47-49.6 25.8 6.4 51.6 11.2 77.4 14.3l37.4 32.5c3.2 2.7 7.7 3 10 .6 2.2-2.3 1.7-6.2-1.3-8.9l-25.7-22.1c26.9 2.2 53.3 2.1 79-.5.4 0 .9-.1 1.3-.1 68.2-7.4 110.6-31.1 133-48.1-25.9 87.1-81.4 101.3-134 111z"/></svg>