<svg xmlns="http://www.w3.org/2000/svg" viewBox="0 0 74.31 157.75"><title>1Ресурс 2</title><g id="Слой_2" data-name="Слой 2"><g id="Слой_1-2" data-name="Слой 1"><path d="M74.28,151.74s.78,8.26-4.64,5.42-16.71-21.94-33.13-29.94S8.22,103.74,4.87,99.35s-9-9.55,0-23.48S16.09,58,18,55.52A64.16,64.16,0,0,1,31,41.29c7.91-6.49,23.67-22.2,30.64-37.42,0,0,9.29-9.81,7,1.81S42.1,43,42.1,43s-16,14.32-19.67,18.94S11.84,79.74,11.84,79.74s-4.39,10.84.25,13.94S20.87,106.32,29.9,112,66.26,139.87,74.28,151.74Z"/></g></g></svg>