<svg xmlns="http://www.w3.org/2000/svg" viewBox="0 0 74.31 157.75"><title>1Ресурс 1</title><g id="Слой_2" data-name="Слой 2"><g id="Слой_1-2" data-name="Слой 1"><path d="M0,151.74s-.79,8.26,4.63,5.42,16.71-21.94,33.13-29.94,28.29-23.48,31.65-27.87,9-9.55,0-23.48S58.22,58,56.34,55.52a64.28,64.28,0,0,0-13-14.23C35.4,34.8,19.64,19.09,12.67,3.87c0,0-9.29-9.81-7,1.81S32.21,43,32.21,43s16,14.32,19.68,18.94S62.48,79.74,62.48,79.74s4.39,10.84-.26,13.94S53.45,106.32,44.41,112,8.05,139.87,0,151.74Z"/></g></g></svg>