<svg data-name="Capa 1" xmlns="http://www.w3.org/2000/svg" viewBox="0 0 262.71 420.52"><path d="M259.47 141.01c3.36-3.32 4.68-8.31 1.14-13.46-.52-.75-1.1-1.44-1.62-2.18v-.05c-34.63-49.4-81-86.45-129.54-121.49a11.13 11.13 0 00-5-2.1c-3.17-2.21-7.32-2.6-11.53.6C64.5 39.18 25.52 84.93 1.14 140.99c-2.73 6.27-.06 12.16 4.24 15.49a12.41 12.41 0 0010.74 3.54l48.63-7c-1.08 32.38-2.17 62.67-3.27 108.22a10.7 10.7 0 00-.72 3.21c-.56 8.92-1.15 17.83-1.71 26.75-2.26 7.2 1.17 15.88 10.63 14.84a808.42 808.42 0 01115-4.48 12.2 12.2 0 003.78-.48c6.32.49 12.91-3.29 12.65-11.46-1.39-42.57-2.8-99.39-4.22-142 17.81-1.15 35.62-2.11 53.48-2.19a11 11 0 009.1-4.42zm-74.87-16.39c-6.8.45-10.58 5.44-11.34 10.75a12.18 12.18 0 00-.6 4.18c1.38 41.27 2.74 96.79 4.08 138.06-25.46-.58-50.83.15-76.18 2a10.88 10.88 0 00.89-3.81c3.29-65.83 1.82-79.72 1.74-145.6 0-6.6-5-9.93-10.17-10a10.16 10.16 0 00-3.7-.36c-12.65 1.07-25.34 1.56-38 2.22a352.76 352.76 0 0174.83-90.19c.2-.18.33-.37.51-.54 36.7 26.88 72 55.44 100.4 91-14.16.46-28.31 1.34-42.46 2.29z" fill="#54654f"/><text transform="translate(29.64 395.78)" font-size="85.58" font-family="Neucha" fill="#54654f">наверх</text></svg>