<svg width="360" height="700" viewBox="0 0 360 700" xmlns="http://www.w3.org/2000/svg" xmlns:xlink="http://www.w3.org/1999/xlink"><defs><path d="M1.506 9H0v683h1.055a557.596 557.596 0 01-.127 6.104c.823.163 1.552.363 2.206.61l5.183-.64c1.34-.16 2.676-.32 3.865-.641l-.13 1.383c6.645.35 9.962.524 18.173.195l-1.675.988c4.632.087 5.849-3.983 10.12-4.064l1.286 2.061c8.08-.032 16.26 1.778 24.244-.09-.132.3-.37.897-1.678.98 3.804.054 14.714 1.396 13.332-1.434.095 1.842 8.337.18 12.701-.631l-.68 1.358c3.684-1.736 3.802-2.212 8.945-2.693 1.219.179 1.068 1.088-.55.742 4.06.712 3.165-1.288 8.089-.563l-1.835.868c4.18.105 3.846-.361 6.148-1.376 2.627-.544 7.927.344 8.545 1.573.563-.748 2.852-1.75 5.315-1.397.332.466-.565.753-1.017.895 6.988.924 10.392-1.58 15.198-.246.099.45.412.675.81.812-5.55-.034-10.02-.108-9.603-.208 0 1.254 4.484 1.474.917 3.205 3.6-.946 9.755-2.997 14.125-2.41.213.123.42.242.578.435l-.452.141c1.009.125 1.912.007 2.763-.202 1.395.205 2.28.358 3.62.375.518 1.037 5.142.559 7.378.61-.185-1.37 2.743-1.151 0-2.283.356.098-.422.164-1.909.222-.337.04-.732.061-.953.142l.152-.122-5.557.092c1.765-.697 3.611-1.283 6.084-.522 1.148-.88 2.41-1.787 3.121-2.212 3.06 1.912 8.958 2.947 9.78 4.125 6.827-.769 16.083-.508 20.375-3.083 1.943-.332 2.232.739 2.958 1.144-1.121.258-2.453.22-3.06.59 3.88-.661 11.5-.259 12.426-2.059 4.892.812-2.75 1.659 3.972 1.364l-.907.55c13.223 2.876 21.498-4.594 36.158-.902-1.015-.226-1.523-.331-1.73-.631 16.713 1.627 34.443-1.53 50.935 1.053 4.689.52 5.197-.629 8.058-1.502l1.015 1.473 4.892-1.7c6.937-1.244 12.012 3.615 20.795 1.261l-1.133-.993c3.154.188 9.99-.585 9.464.557.323-.18 1.035-1.032 2.268-.515l.095.77 7.749-1.319c6.005.556-.94 3.059 7.825 3.21 3.258-.298 9.277-2.244 8.054-2.761-1.315-.037-3.36-.48-3.458-1.251l2.98-.403c.082-.344.205-.69.328-1.035H360V9h-.51l-.075-5.678c-.958.036-1.905.07-2.843.107-.463-.007-.923-.012-1.381-.017l-1.04-.075a11.54 11.54 0 01-3.627-1.015c-2.44 1.134 5.01.797 2.829 2.127-4.243-.22-8.664-2.549-9.993-2.554-5.812-.9-5.423 2.37-11.504 1.756.777.578 1.512 2.125-3.033 2.668-4.248-.212-5.22-2.426-2.539-2.892 1.018-.049 1.51.136 1.466.331 1.372-.21 3.173-.458 1.491-1.085l-.55.578c-2.107-.59-7.949-.53-6.577-1.478-3.208.551-1.372.949 1.005 1.249-5.446-.837-8.508-.024-14.114-.588.892.32 1.712 1 .826.993-8.223-.717-3.62 1.1-9.192 1.353-3.165-.883 1.135-2.107-4.474-1.368-3.424-.597-.724-1.536.636-2.007-5.11 1.114-9.546-.734-12.464-.94l2.69-.465c-1.609.276-2.927.268-4.269.266l1.537 1.158c-1.58-.202-2.918-.207-2.889-.69-1.628.759 1.246 1.927-1.985 2.964-2.106-.588-6.415.631-7.143-.905 6.627.522-.731-1.544 4.876-1.79-1.081.182-2.4.175-3.985-.027-.239-.174.224-.32.655-.408-6.34-1.373-2.913 1.737-9.484 1.703.834-.866-1.523-1.644-2.595-1.459 2.647.017 1.266 1.444-1.163 2.107-4.212-.673-4.579.503-6.785.425l2.518.317c-.853.866-2.96.751-5.896 1.024-.252-.673 2.666-.463 1.619-.76-3.262 1.521-7.37-1.576-11.916-.552-2.106-.585-.203-1.627-2.053-2.024-5.096 1.124-5.52-1.186-10.876-.259 1.543 1.164 1.813.88-1.958 2.015l8.806-.82-5.652 1.693c2.658.017 5.608-.732 7.2-.534-2.692.949-2.416.66-1.143 1.627-3.636-1.747-7.21 1.017-11.413-.164l.128-2.88c-6.32-1.286-11.227 1.478-19.434.753l2.638.5c-1.101 1.147-5.067.161-7.724.625.247-.964-1.413-1.312-2.548-1.912.137.714-6.007-.066-6.751 1.858l-3.664-1.268c-6.626-.52-7.562 2.744-13.931 2.414 1.919-1.046-.977-1.729 3.29-2.478-2.126-.01-4.038-.185-4.072.483-1.242-.602-5.896 1.298-7.852.383-.896.422-1.19 1.432-3.577 1.352-.26-.196.01-.476.01-.476-.01.476-3.738.646-1.652 1.712-6.55-3.005-18.309.22-24.013-2.36-4.64.321-10.232.63-14.445.702.27-.288.014-.48.81-.38-5.811-.896-3.572 2.765-10.186 1.765-3.38-1.556 3.512-.842 1.405-1.432-.917-3.168-7.982.434-12.433-1.417l1.078-.188c-3.401-1.075-8.3 1.203-13.858.976 0 0 .27-.28.033-.478C82.483 4.776 75.288 5.31 69.94 5.758c1.665-1.239 2.43-.656 1.415-1.914-2.398.178.702 2.022-4.083 2.375-1.555-.678-5.007-1.273-5.464-2.617l4.512-.073c-2.312-1.739-5.841.061-8.219-.241l.304-.761c-6.916.246-7.012 2.163-14.446 2.027l.768.575c-4.06 1.898-3.405-1.068-7.457.344l-1.226-1.927c-2.68.466-9.39 1.861-14.196 2.225 2.723-1.43 8.348-2.159 11.829-3.008-2.657-.012-9.03.144-10.413 1.093 1.07-.185 2.419-.656 3.476-.36-3.26 1.514-7.548 2.258-12.842 2.223.307-1.22-1.064-1.741-3.18-1.995-1.057-.126-2.301-.185-3.617-.229C5.294 3.45 3.39 3.4 1.548 3.351L1.506 9z" id="a"/></defs><use fill="#D8D8D8" xlink:href="#a" fill-rule="evenodd"/></svg>