<?xml version="1.0" encoding="UTF-8" standalone="no"?>
<!DOCTYPE svg PUBLIC "-//W3C//DTD SVG 1.1//EN" "http://www.w3.org/Graphics/SVG/1.1/DTD/svg11.dtd">
<svg version="1.1" xmlns="http://www.w3.org/2000/svg" xmlns:xlink="http://www.w3.org/1999/xlink" preserveAspectRatio="xMidYMid meet" viewBox="0 0 897 452" width="897" height="452"><defs><path d="M693.1 372C686.46 372 681.08 366.62 681.08 359.99C681.08 330.7 681.08 96.38 681.08 67.09C681.08 60.46 686.46 55.08 693.1 55.08C712.19 55.08 864.9 55.08 883.99 55.08C890.62 55.08 896 60.46 896 67.09C896 96.38 896 330.7 896 359.99C896 366.62 890.62 372 883.99 372C845.81 372 712.19 372 693.1 372Z" id="b2VK5LqMkY"></path><path d="M693.1 371.46C686.46 371.46 681.08 366.08 681.08 359.45C681.08 343.49 681.08 266.62 681.08 195.24C681.08 135.65 681.08 79.88 681.08 66.55C681.08 59.92 686.46 54.54 693.1 54.54C712.19 54.54 864.9 54.54 883.99 54.54C890.62 54.54 896 59.92 896 66.55C896 95.84 896 330.16 896 359.45C896 366.08 890.62 371.46 883.99 371.46C845.81 371.46 712.19 371.46 693.1 371.46Z" id="a18DFSHPmp"></path><path d="M880 87C880 87 880 87 880 87C880 238.75 880 323.06 880 339.92C880 339.92 880 339.92 880 339.92C770.8 339.92 710.13 339.92 698 339.92C698 339.92 698 339.92 698 339.92C698 188.17 698 103.86 698 87C698 87 698 87 698 87C807.2 87 867.87 87 880 87Z" id="c2Ef9cDhIp"></path><path d="M789 344.98C784.57 344.98 780.98 348.57 780.98 353C780.98 357.43 784.57 361.02 789 361.02C793.43 361.02 797.02 357.43 797.02 353C797.02 348.57 793.43 344.98 789 344.98Z" id="a9ilzI40Ly"></path><path d="M787.99 69C786.34 69 785 70.34 785 71.99C785 73.64 786.34 74.98 787.99 74.98C789.64 74.98 790.98 73.64 790.98 71.99C790.98 70.34 789.64 69 787.99 69Z" id="c9cJMSIHs"></path><path d="M99 1C85.5 1 74 12.07 74 25.79C74 47.54 74 156.29 74 352.03L620 352.03C620 156.29 620 47.54 620 25.79C620 12.07 608.54 1 595 1C495.8 1 148.6 1 99 1Z" id="a4tCqkXDq"></path><path d="M348 16C345.79 16 344 17.79 344 20C344 22.21 345.79 24 348 24C350.21 24 352 22.21 352 20C352 17.79 350.21 16 348 16Z" id="fAdyafg8p"></path><path d="M52.29 383.01C21.64 383.01 1 372.49 1 368.02C1 366.66 1 355.79 1 354.43C1 353.08 2.34 352 4 352C72.61 352 621.49 352 690.1 352C691.77 352 693.1 353.08 693.1 354.43C693.1 355.84 693.1 367.14 693.1 368.56C693.1 372.09 677.11 383.01 641.81 383.01C523.91 383.01 111.24 383.01 52.29 383.01Z" id="d6HWHEUaGi"></path><path d="M1.5 366.5L691.24 366.5" id="e8NmSlORT"></path><path d="M597.07 40C597.07 40 597.07 40 597.07 40C597.07 215.21 597.07 312.54 597.07 332.01C597.07 332.01 597.07 332.01 597.07 332.01C296.43 332.01 129.4 332.01 96 332.01C96 332.01 96 332.01 96 332.01C96 156.8 96 59.47 96 40C96 40 96 40 96 40C396.64 40 563.67 40 597.07 40Z" id="c1o2Li3YJN"></path><path d="M422 353C422 354.85 422 355.88 422 356.09C422 358.29 417.67 358.95 414.39 358.95C400.93 358.95 293.27 358.95 279.82 358.95C276.36 358.95 272 358.29 272 356.09C272 355.88 272 354.85 272 353" id="bvWz8Mhcx"></path><path d="M689.94 450.96C680.15 450.96 601.85 450.96 592.06 450.96C583.19 450.96 576 443.8 576 434.96C576 410.77 576 217.26 576 193.07C576 184.24 583.19 177.08 592.06 177.08C601.85 177.08 680.15 177.08 689.94 177.08C698.81 177.08 706 184.24 706 193.07C706 209.2 706 289.83 706 434.96L706 434.96C701.21 445.63 695.85 450.96 689.94 450.96Z" id="byJmQqPqF"></path><path d="M696.93 213C696.93 213 696.93 213 696.93 213C696.93 332.45 696.93 398.81 696.93 412.08C696.93 412.08 696.93 412.08 696.93 412.08C629.77 412.08 592.46 412.08 585 412.08C585 412.08 585 412.08 585 412.08C585 292.63 585 226.27 585 213C585 213 585 213 585 213C652.16 213 689.47 213 696.93 213Z" id="c4BtsriTFJ"></path><path d="M652.02 203.89C650.01 203.89 633.93 203.89 631.92 203.89C631.38 203.89 630.94 203.38 630.94 202.75C630.94 202.49 630.94 200.42 630.94 200.17C630.94 199.53 631.38 199.02 631.92 199.02C633.93 199.02 650.01 199.02 652.02 199.02C652.56 199.02 653 199.53 653 200.17C653 200.34 653 201.2 653 202.75L653 202.75C652.71 203.51 652.38 203.89 652.02 203.89Z" id="e5j8pCLid"></path><path d="M642 186C640.34 186 639 187.34 639 189C639 190.66 640.34 192 642 192C643.66 192 645 190.66 645 189C645 187.34 643.66 186 642 186Z" id="bHVhPZULc"></path><path d="M651.08 431C651.08 436.52 646.58 441 641.04 441C635.5 441 631 436.52 631 431C631 425.48 635.5 421 641.04 421C646.58 421 651.08 425.48 651.08 431Z" id="a1rBUQzfq"></path></defs><g><g><g><use xlink:href="#b2VK5LqMkY" opacity="1" fill="#fdfdfd" fill-opacity="1"></use><g><use xlink:href="#b2VK5LqMkY" opacity="1" fill-opacity="0" stroke="#7e89a3" stroke-width="2" stroke-opacity="1"></use></g></g><g><use xlink:href="#a18DFSHPmp" opacity="1" fill="#dedede" fill-opacity="1"></use><g><use xlink:href="#a18DFSHPmp" opacity="1" fill-opacity="0" stroke="#7e89a3" stroke-width="2" stroke-opacity="1"></use></g></g><g><use xlink:href="#c2Ef9cDhIp" opacity="1" fill="#ffffff" fill-opacity="1"></use><g><use xlink:href="#c2Ef9cDhIp" opacity="1" fill-opacity="0" stroke="#7e89a3" stroke-width="1" stroke-opacity="1"></use></g></g><g><use xlink:href="#a9ilzI40Ly" opacity="1" fill="#000000" fill-opacity="0"></use><g><use xlink:href="#a9ilzI40Ly" opacity="1" fill-opacity="0" stroke="#7e89a3" stroke-width="1" stroke-opacity="1"></use></g></g><g><use xlink:href="#c9cJMSIHs" opacity="1" fill="#000000" fill-opacity="0"></use><g><use xlink:href="#c9cJMSIHs" opacity="1" fill-opacity="0" stroke="#7e89a3" stroke-width="1" stroke-opacity="1"></use></g></g><g><use xlink:href="#a4tCqkXDq" opacity="1" fill="#dedede" fill-opacity="1"></use><g><use xlink:href="#a4tCqkXDq" opacity="1" fill-opacity="0" stroke="#8492a5" stroke-width="2" stroke-opacity="1"></use></g></g><g><use xlink:href="#fAdyafg8p" opacity="1" fill="#000000" fill-opacity="0"></use><g><use xlink:href="#fAdyafg8p" opacity="1" fill-opacity="0" stroke="#8492a5" stroke-width="2" stroke-opacity="1"></use></g></g><g><use xlink:href="#d6HWHEUaGi" opacity="1" fill="#dedede" fill-opacity="1"></use><g><use xlink:href="#d6HWHEUaGi" opacity="1" fill-opacity="0" stroke="#8492a5" stroke-width="2" stroke-opacity="1"></use></g></g><g><use xlink:href="#e8NmSlORT" opacity="1" fill="#000000" fill-opacity="0"></use><g><use xlink:href="#e8NmSlORT" opacity="1" fill-opacity="0" stroke="#8492a5" stroke-width="1" stroke-opacity="1"></use></g></g><g><use xlink:href="#c1o2Li3YJN" opacity="1" fill="#ffffff" fill-opacity="1"></use><g><use xlink:href="#c1o2Li3YJN" opacity="1" fill-opacity="0" stroke="#8492a5" stroke-width="1" stroke-opacity="1"></use></g></g><g><use xlink:href="#bvWz8Mhcx" opacity="1" fill="#ffffff" fill-opacity="1"></use><g><use xlink:href="#bvWz8Mhcx" opacity="1" fill-opacity="0" stroke="#8492a5" stroke-width="1" stroke-opacity="1"></use></g></g><g><use xlink:href="#byJmQqPqF" opacity="1" fill="#dedede" fill-opacity="1"></use><g><use xlink:href="#byJmQqPqF" opacity="1" fill-opacity="0" stroke="#7e89a3" stroke-width="2" stroke-opacity="1"></use></g></g><g><use xlink:href="#c4BtsriTFJ" opacity="1" fill="#ffffff" fill-opacity="1"></use><g><use xlink:href="#c4BtsriTFJ" opacity="1" fill-opacity="0" stroke="#7e89a3" stroke-width="1" stroke-opacity="1"></use></g></g><g><use xlink:href="#e5j8pCLid" opacity="1" fill="#000000" fill-opacity="0"></use><g><use xlink:href="#e5j8pCLid" opacity="1" fill-opacity="0" stroke="#7e89a3" stroke-width="1" stroke-opacity="1"></use></g></g><g><use xlink:href="#bHVhPZULc" opacity="1" fill="#000000" fill-opacity="0"></use><g><use xlink:href="#bHVhPZULc" opacity="1" fill-opacity="0" stroke="#7e89a3" stroke-width="1" stroke-opacity="1"></use></g></g><g><use xlink:href="#a1rBUQzfq" opacity="1" fill="#000000" fill-opacity="0"></use><g><use xlink:href="#a1rBUQzfq" opacity="1" fill-opacity="0" stroke="#7e89a3" stroke-width="1" stroke-opacity="1"></use></g></g></g></g></svg>